<?xml version="1.0" encoding="UTF-8" standalone="no"?>
<!DOCTYPE svg PUBLIC "-//W3C//DTD SVG 1.1//EN" "http://www.w3.org/Graphics/SVG/1.1/DTD/svg11.dtd">
<!-- Created with Vectornator (http://vectornator.io/) -->
<svg height="100%" stroke-miterlimit="10" style="fill-rule:nonzero;clip-rule:evenodd;stroke-linecap:round;stroke-linejoin:round;" version="1.1" viewBox="0 0 468 192" width="100%" xml:space="preserve" xmlns="http://www.w3.org/2000/svg" xmlns:vectornator="http://vectornator.io" xmlns:xlink="http://www.w3.org/1999/xlink">
<defs/>
<g id="Layer-1" vectornator:layerName="Layer 1">
<g opacity="1" vectornator:layerName="Group">
<path d="M78 108L78 111.5L72 111.5L72 126L78 126L78 138L72 138L72 144L60 144L60 150L54 150L54 168L60 168L60 174L66 174L66 180L96 180L96 171.5L72 171.5L72 165.5L66 165.5L66 152.5L90 152.5L90 158.5L96 158.5L96 164.5L102 164.5L102 174L108 174L108 168L114 168L114 174L120 174L120 180L132 180L132 171.5L126 171.5L126 165.5L120 165.5L120 159.5L114 159.5L114.562 150L96 150L96 144L90 144L90 134.5L96 134.5L96 128.5L102 128.5L102 114L96 114L96 108L78 108ZM114 150L120 150L120.562 144L114 144L114 150ZM120 144L126 144L126 138L120 138L120 144Z" fill="#ab1315" fill-rule="nonzero" opacity="1" stroke="#ab1315" stroke-linecap="butt" stroke-linejoin="miter" stroke-width="1" vectornator:layerName="Curve"/>
<path d="M72 147L72 153L78 153L84 153L84 147L78 147L72 147ZM84 153L84 159L90 159L90 153L84 153ZM90 159L90 165L90 171L102 171L102 165L96 165L96 159L90 159ZM90 171L78 171L78 177L90 177L90 171ZM78 171L78 165L72 165L72 171L78 171ZM72 165L72 159L72 153L66 153L66 159L66 165L72 165Z" fill="#000000" fill-rule="nonzero" opacity="1" stroke="none"/>
<path d="M78 99L78 105L96 105L96 99L78 99ZM96 105L96 111L102 111L102 105L96 105ZM102 111L102 117L102 123L102 129L108 129L108 123L108 117L108 111L102 111ZM102 129L96 129L96 135L102 135L102 129ZM96 135L90 135L90 141L96 141L96 135ZM96 141L96 147L102 147L102 141L96 141ZM102 147L102 153L108 153L108 147L102 147ZM108 147L114 147L114 141L108 141L108 147ZM114 141L120 141L120 135L114 135L114 141ZM120 135L132 135L132 129L120 129L120 135ZM132 135L132 141L138 141L138 135L132 135ZM132 141L126 141L126 147L132 147L132 141ZM126 147L120 147L120 153L126 153L126 147ZM120 153L114 153L114 159L120 159L120 153ZM120 159L120 165L126 165L126 159L120 159ZM126 165L126 171L132 171L132 165L126 165ZM132 171L132 177L132 183L138 183L138 177L138 171L132 171ZM132 183L120 183L120 189L132 189L132 183ZM120 183L120 177L114 177L114 183L120 183ZM114 177L114 171L108 171L108 177L114 177ZM108 177L96 177L96 183L108 183L108 177ZM96 183L66 183L66 189L96 189L96 183ZM66 183L66 177L60 177L60 171L54 171L54 177L54 183L66 183ZM54 171L54 165L54 159L54 153L54 147L48 147L48 153L48 159L48 165L48 171L54 171ZM54 147L60 147L60 141L54 141L54 147ZM60 141L72 141L72 135L60 135L60 141ZM72 135L78 135L78 129L72 129L72 135ZM72 129L72 123L72 117L72 111L66 111L66 117L66 123L66 129L72 129ZM72 111L78 111L78 105L72 105L72 111Z" fill="#000000" fill-rule="nonzero" opacity="1" stroke="none"/>
<path d="M84 111L84 117L84 123L96 123L96 117L90 117L90 111L84 111Z" fill="#000000" fill-rule="nonzero" opacity="1" stroke="none"/>
<path d="M72 123L72 129L78 129L78 123L72 123ZM72 135L72 141L78 141L78 135L72 135ZM72 141L66 141L60 141L60 147L66 147L72 147L72 141ZM60 147L54 147L54 153L54 159L54 165L54 171L60 171L60 165L60 159L60 153L60 147ZM60 171L60 177L66 177L66 171L60 171ZM66 177L66 183L96 183L96 177L66 177ZM96 177L108 177L108 171L96 171L96 177ZM108 171L114 171L114 165L108 165L108 171ZM114 171L114 177L120 177L120 171L114 171ZM120 177L120 183L132 183L132 177L120 177ZM126 135L126 141L132 141L132 135L126 135ZM126 141L120 141L120 147L126 147L126 141ZM120 147L114 147L114 153L120 153L120 147ZM114 153L108 153L108 159L114 159L114 153Z" fill="#750700" fill-rule="nonzero" opacity="1" stroke="none"/>
<path d="M120 135L120 141L126 141L126 135L120 135ZM120 141L114 141L114 147L120 147L120 141ZM114 147L108 147L108 153L114 153L114 147ZM90 141L90 147L96 147L96 141L90 141ZM96 147L96 153L102 153L102 147L96 147Z" fill="#e0542a" fill-rule="nonzero" opacity="1" stroke="none"/>
<path d="M78 105L78 111L90 111L90 117L96 117L96 123L102 123L102 117L102 111L96 111L96 105L78 105Z" fill="#e0542a" fill-rule="nonzero" opacity="1" stroke="none"/>
</g>
<g opacity="1" vectornator:layerName="Group">
<path d="M78 108L78 111.5L72 111.5L72 126L78 126L78 138L72 138L72 144L60 144L60 150L54 150L54 168L60 168L60 174L66 174L66 180L96 180L96 171.5L72 171.5L72 165.5L66 165.5L66 152.5L90 152.5L90 158.5L96 158.5L96 164.5L102 164.5L102 174L108 174L108 168L114 168L114 174L120 174L120 180L132 180L132 171.5L126 171.5L126 165.5L120 165.5L120 159.5L114 159.5L114.562 150L96 150L96 144L90 144L90 134.5L96 134.5L96 128.5L102 128.5L102 114L96 114L96 108L78 108ZM114 150L120 150L120.562 144L114 144L114 150ZM120 144L126 144L126 138L120 138L120 144Z" fill="#ab1315" fill-rule="nonzero" opacity="1" stroke="#ab1315" stroke-linecap="butt" stroke-linejoin="miter" stroke-width="1" vectornator:layerName="Curve"/>
<path d="M72 147L72 153L78 153L84 153L84 147L78 147L72 147ZM84 153L84 159L90 159L90 153L84 153ZM90 159L90 165L90 171L102 171L102 165L96 165L96 159L90 159ZM90 171L78 171L78 177L90 177L90 171ZM78 171L78 165L72 165L72 171L78 171ZM72 165L72 159L72 153L66 153L66 159L66 165L72 165Z" fill="#000000" fill-rule="nonzero" opacity="1" stroke="none"/>
<path d="M78 99L78 105L96 105L96 99L78 99ZM96 105L96 111L102 111L102 105L96 105ZM102 111L102 117L102 123L102 129L108 129L108 123L108 117L108 111L102 111ZM102 129L96 129L96 135L102 135L102 129ZM96 135L90 135L90 141L96 141L96 135ZM96 141L96 147L102 147L102 141L96 141ZM102 147L102 153L108 153L108 147L102 147ZM108 147L114 147L114 141L108 141L108 147ZM114 141L120 141L120 135L114 135L114 141ZM120 135L132 135L132 129L120 129L120 135ZM132 135L132 141L138 141L138 135L132 135ZM132 141L126 141L126 147L132 147L132 141ZM126 147L120 147L120 153L126 153L126 147ZM120 153L114 153L114 159L120 159L120 153ZM120 159L120 165L126 165L126 159L120 159ZM126 165L126 171L132 171L132 165L126 165ZM132 171L132 177L132 183L138 183L138 177L138 171L132 171ZM132 183L120 183L120 189L132 189L132 183ZM120 183L120 177L114 177L114 183L120 183ZM114 177L114 171L108 171L108 177L114 177ZM108 177L96 177L96 183L108 183L108 177ZM96 183L66 183L66 189L96 189L96 183ZM66 183L66 177L60 177L60 171L54 171L54 177L54 183L66 183ZM54 171L54 165L54 159L54 153L54 147L48 147L48 153L48 159L48 165L48 171L54 171ZM54 147L60 147L60 141L54 141L54 147ZM60 141L72 141L72 135L60 135L60 141ZM72 135L78 135L78 129L72 129L72 135ZM72 129L72 123L72 117L72 111L66 111L66 117L66 123L66 129L72 129ZM72 111L78 111L78 105L72 105L72 111Z" fill="#000000" fill-rule="nonzero" opacity="1" stroke="none"/>
<path d="M84 111L84 117L84 123L96 123L96 117L90 117L90 111L84 111Z" fill="#000000" fill-rule="nonzero" opacity="1" stroke="none"/>
<path d="M72 123L72 129L78 129L78 123L72 123ZM72 135L72 141L78 141L78 135L72 135ZM72 141L66 141L60 141L60 147L66 147L72 147L72 141ZM60 147L54 147L54 153L54 159L54 165L54 171L60 171L60 165L60 159L60 153L60 147ZM60 171L60 177L66 177L66 171L60 171ZM66 177L66 183L96 183L96 177L66 177ZM96 177L108 177L108 171L96 171L96 177ZM108 171L114 171L114 165L108 165L108 171ZM114 171L114 177L120 177L120 171L114 171ZM120 177L120 183L132 183L132 177L120 177ZM126 135L126 141L132 141L132 135L126 135ZM126 141L120 141L120 147L126 147L126 141ZM120 147L114 147L114 153L120 153L120 147ZM114 153L108 153L108 159L114 159L114 153Z" fill="#750700" fill-rule="nonzero" opacity="1" stroke="none"/>
<path d="M120 135L120 141L126 141L126 135L120 135ZM120 141L114 141L114 147L120 147L120 141ZM114 147L108 147L108 153L114 153L114 147ZM90 141L90 147L96 147L96 141L90 141ZM96 147L96 153L102 153L102 147L96 147Z" fill="#e0542a" fill-rule="nonzero" opacity="1" stroke="none"/>
<path d="M78 105L78 111L90 111L90 117L96 117L96 123L102 123L102 117L102 111L96 111L96 105L78 105Z" fill="#e0542a" fill-rule="nonzero" opacity="1" stroke="none"/>
</g>
<g opacity="0">
<path d="M162 108L162 114L168 114L168 168L162 168L162 174L204 174L204 168L216 168L216 162L222 162L222 156L228 156L228 126L222 126L222 120L216 120L216 114L204 114L204 108L162 108ZM186 114L198 114L198 120L204 120L204 126L210 126L210 156L204 156L204 162L198 162L198 168L180 168L180 120L186 120L186 114Z" fill="#ab1315" fill-rule="nonzero" opacity="1" stroke="#ab1315" stroke-linecap="butt" stroke-linejoin="miter" stroke-width="1"/>
<path d="M144 99L144 105L150 105L150 111L156 111L156 105L204 105L204 99L144 99ZM204 105L204 111L216 111L216 105L204 105ZM216 111L216 117L222 117L222 111L216 111ZM222 117L222 123L228 123L228 117L222 117ZM228 123L228 129L228 135L228 141L228 147L228 153L228 159L234 159L234 153L234 147L234 141L234 135L234 129L234 123L228 123ZM228 159L222 159L222 165L228 165L228 159ZM222 165L216 165L216 171L222 171L222 165ZM216 171L204 171L204 177L216 177L216 171ZM204 177L168 177L162 177L156 177L156 171L150 171L150 177L144 177L144 183L144 189L150 189L150 183L156 183L162 183L168 183L204 183L204 177ZM156 171L162 171L162 165L156 165L156 171ZM162 165L168 165L168 159L168 153L168 147L168 141L168 135L168 129L168 123L168 117L162 117L162 123L162 129L162 135L162 141L162 147L162 153L162 159L162 165ZM162 117L162 111L156 111L156 117L162 117ZM186 117L186 123L198 123L198 117L186 117ZM198 123L198 129L204 129L204 123L198 123ZM204 129L204 135L204 141L204 147L204 153L210 153L210 147L210 141L210 135L210 129L204 129ZM204 153L198 153L198 159L204 159L204 153ZM198 159L186 159L186 153L186 147L186 141L186 135L186 129L186 123L180 123L180 129L180 135L180 141L180 147L180 153L180 159L180 165L198 165L198 159Z" fill="#000000" fill-rule="nonzero" opacity="1" stroke="none"/>
<path d="M156 105L156 111L162 111L162 105L156 105ZM162 111L162 117L168 117L168 111L162 111ZM168 117L168 123L168 129L168 135L168 141L168 147L168 153L168 159L168 165L174 165L174 159L174 153L174 147L174 141L174 135L174 129L174 123L174 117L168 117ZM168 165L162 165L162 171L156 171L156 177L204 177L204 171L168 171L168 165ZM204 171L216 171L216 165L204 165L204 171ZM216 165L222 165L222 159L216 159L216 165ZM222 159L228 159L228 153L228 147L228 141L222 141L222 147L222 153L222 159Z" fill="#750700" fill-rule="nonzero" opacity="1" stroke="none"/>
<path d="M156 105L156 111L204 111L204 105L156 105ZM204 111L204 117L216 117L216 111L204 111ZM216 117L216 123L222 123L222 117L216 117ZM222 123L222 129L228 129L228 123L222 123Z" fill="#e0542a" fill-rule="nonzero" opacity="1" stroke="none"/>
</g>
<g opacity="1">
<path d="M18 12L18 18L24 18L24 72L18 72L18 78L60 78L60 72L72 72L72 66L78 66L78 60L84 60L84 30L78 30L78 24L72 24L72 18L60 18L60 12L18 12ZM42 21L54 21L54 26.5L60 26.5L60 32.5L66 32.5L66 57.5L60 57.5L60 63.5L54 63.5L54 69L36 69L36 26.5L42 26.5L42 21Z" fill="#ab1315" fill-rule="nonzero" opacity="1" stroke="#ab1315" stroke-linecap="butt" stroke-linejoin="miter" stroke-width="1"/>
<path d="M0 3L0 9L6 9L6 15L12 15L12 9L60 9L60 3L0 3ZM60 9L60 15L72 15L72 9L60 9ZM72 15L72 21L78 21L78 15L72 15ZM78 21L78 27L84 27L84 21L78 21ZM84 27L84 33L84 39L84 45L84 51L84 57L84 63L90 63L90 57L90 51L90 45L90 39L90 33L90 27L84 27ZM84 63L78 63L78 69L84 69L84 63ZM78 69L72 69L72 75L78 75L78 69ZM72 75L60 75L60 81L72 81L72 75ZM60 81L24 81L18 81L12 81L12 75L6 75L6 81L0 81L0 87L0 93L6 93L6 87L12 87L18 87L24 87L60 87L60 81ZM12 75L18 75L18 69L12 69L12 75ZM18 69L24 69L24 63L24 57L24 51L24 45L24 39L24 33L24 27L24 21L18 21L18 27L18 33L18 39L18 45L18 51L18 57L18 63L18 69ZM18 21L18 15L12 15L12 21L18 21ZM42 21L42 27L54 27L54 21L42 21ZM54 27L54 33L60 33L60 27L54 27ZM60 33L60 39L60 45L60 51L60 57L66 57L66 51L66 45L66 39L66 33L60 33ZM60 57L54 57L54 63L60 63L60 57ZM54 63L42 63L42 57L42 51L42 45L42 39L42 33L42 27L36 27L36 33L36 39L36 45L36 51L36 57L36 63L36 69L54 69L54 63Z" fill="#000000" fill-rule="nonzero" opacity="1" stroke="none"/>
<path d="M12 9L12 15L18 15L18 9L12 9ZM18 15L18 21L24 21L24 15L18 15ZM24 21L24 27L24 33L24 39L24 45L24 51L24 57L24 63L24 69L30 69L30 63L30 57L30 51L30 45L30 39L30 33L30 27L30 21L24 21ZM24 69L18 69L18 75L12 75L12 81L60 81L60 75L24 75L24 69ZM60 75L72 75L72 69L60 69L60 75ZM72 69L78 69L78 63L72 63L72 69ZM78 63L84 63L84 57L84 51L84 45L78 45L78 51L78 57L78 63Z" fill="#750700" fill-rule="nonzero" opacity="1" stroke="none"/>
<path d="M12 9L12 15L60 15L60 9L12 9ZM60 15L60 21L72 21L72 15L60 15ZM72 21L72 27L78 27L78 21L72 21ZM78 27L78 33L84 33L84 27L78 27Z" fill="#e0542a" fill-rule="nonzero" opacity="1" stroke="none"/>
</g>
<g opacity="1">
<path d="M162 108L162 114L168 114L168 168L162 168L162 174L204 174L204 168L216 168L216 162L222 162L222 156L228 156L228 126L222 126L222 120L216 120L216 114L204 114L204 108L162 108ZM186 117L198 117L198 122.5L204 122.5L204 128.5L210 128.5L210 153.5L204 153.5L204 159.5L198 159.5L198 165L180 165L180 122.5L186 122.5L186 117Z" fill="#ab1315" fill-rule="nonzero" opacity="1" stroke="#ab1315" stroke-linecap="butt" stroke-linejoin="miter" stroke-width="1"/>
<path d="M144 99L144 105L150 105L150 111L156 111L156 105L204 105L204 99L144 99ZM204 105L204 111L216 111L216 105L204 105ZM216 111L216 117L222 117L222 111L216 111ZM222 117L222 123L228 123L228 117L222 117ZM228 123L228 129L228 135L228 141L228 147L228 153L228 159L234 159L234 153L234 147L234 141L234 135L234 129L234 123L228 123ZM228 159L222 159L222 165L228 165L228 159ZM222 165L216 165L216 171L222 171L222 165ZM216 171L204 171L204 177L216 177L216 171ZM204 177L168 177L162 177L156 177L156 171L150 171L150 177L144 177L144 183L144 189L150 189L150 183L156 183L162 183L168 183L204 183L204 177ZM156 171L162 171L162 165L156 165L156 171ZM162 165L168 165L168 159L168 153L168 147L168 141L168 135L168 129L168 123L168 117L162 117L162 123L162 129L162 135L162 141L162 147L162 153L162 159L162 165ZM162 117L162 111L156 111L156 117L162 117ZM186 117L186 123L198 123L198 117L186 117ZM198 123L198 129L204 129L204 123L198 123ZM204 129L204 135L204 141L204 147L204 153L210 153L210 147L210 141L210 135L210 129L204 129ZM204 153L198 153L198 159L204 159L204 153ZM198 159L186 159L186 153L186 147L186 141L186 135L186 129L186 123L180 123L180 129L180 135L180 141L180 147L180 153L180 159L180 165L198 165L198 159Z" fill="#000000" fill-rule="nonzero" opacity="1" stroke="none"/>
<path d="M156 105L156 111L162 111L162 105L156 105ZM162 111L162 117L168 117L168 111L162 111ZM168 117L168 123L168 129L168 135L168 141L168 147L168 153L168 159L168 165L174 165L174 159L174 153L174 147L174 141L174 135L174 129L174 123L174 117L168 117ZM168 165L162 165L162 171L156 171L156 177L204 177L204 171L168 171L168 165ZM204 171L216 171L216 165L204 165L204 171ZM216 165L222 165L222 159L216 159L216 165ZM222 159L228 159L228 153L228 147L228 141L222 141L222 147L222 153L222 159Z" fill="#750700" fill-rule="nonzero" opacity="1" stroke="none"/>
<path d="M156 105L156 111L204 111L204 105L156 105ZM204 111L204 117L216 117L216 111L204 111ZM216 117L216 123L222 123L222 117L216 117ZM222 123L222 129L228 129L228 123L222 123Z" fill="#e0542a" fill-rule="nonzero" opacity="1" stroke="none"/>
</g>
<g opacity="1">
<path d="M18 12L18 18L24 18L24 72L18 72L18 78L60 78L60 72L72 72L72 66L78 66L78 60L84 60L84 30L78 30L78 24L72 24L72 18L60 18L60 12L18 12ZM42 21L54 21L54 26.5L60 26.5L60 32.5L66 32.5L66 57.5L60 57.5L60 63.5L54 63.5L54 69L36 69L36 26.5L42 26.5L42 21Z" fill="#ab1315" fill-rule="nonzero" opacity="1" stroke="#ab1315" stroke-linecap="butt" stroke-linejoin="miter" stroke-width="1"/>
<path d="M0 3L0 9L6 9L6 15L12 15L12 9L60 9L60 3L0 3ZM60 9L60 15L72 15L72 9L60 9ZM72 15L72 21L78 21L78 15L72 15ZM78 21L78 27L84 27L84 21L78 21ZM84 27L84 33L84 39L84 45L84 51L84 57L84 63L90 63L90 57L90 51L90 45L90 39L90 33L90 27L84 27ZM84 63L78 63L78 69L84 69L84 63ZM78 69L72 69L72 75L78 75L78 69ZM72 75L60 75L60 81L72 81L72 75ZM60 81L24 81L18 81L12 81L12 75L6 75L6 81L0 81L0 87L0 93L6 93L6 87L12 87L18 87L24 87L60 87L60 81ZM12 75L18 75L18 69L12 69L12 75ZM18 69L24 69L24 63L24 57L24 51L24 45L24 39L24 33L24 27L24 21L18 21L18 27L18 33L18 39L18 45L18 51L18 57L18 63L18 69ZM18 21L18 15L12 15L12 21L18 21ZM42 21L42 27L54 27L54 21L42 21ZM54 27L54 33L60 33L60 27L54 27ZM60 33L60 39L60 45L60 51L60 57L66 57L66 51L66 45L66 39L66 33L60 33ZM60 57L54 57L54 63L60 63L60 57ZM54 63L42 63L42 57L42 51L42 45L42 39L42 33L42 27L36 27L36 33L36 39L36 45L36 51L36 57L36 63L36 69L54 69L54 63Z" fill="#000000" fill-rule="nonzero" opacity="1" stroke="none"/>
<path d="M12 9L12 15L18 15L18 9L12 9ZM18 15L18 21L24 21L24 15L18 15ZM24 21L24 27L24 33L24 39L24 45L24 51L24 57L24 63L24 69L30 69L30 63L30 57L30 51L30 45L30 39L30 33L30 27L30 21L24 21ZM24 69L18 69L18 75L12 75L12 81L60 81L60 75L24 75L24 69ZM60 75L72 75L72 69L60 69L60 75ZM72 69L78 69L78 63L72 63L72 69ZM78 63L84 63L84 57L84 51L84 45L78 45L78 51L78 57L78 63Z" fill="#750700" fill-rule="nonzero" opacity="1" stroke="none"/>
<path d="M12 9L12 15L60 15L60 9L12 9ZM60 15L60 21L72 21L72 15L60 15ZM72 21L72 27L78 27L78 21L72 21ZM78 27L78 33L84 33L84 27L78 27Z" fill="#e0542a" fill-rule="nonzero" opacity="1" stroke="none"/>
</g>
<g opacity="1">
<path d="M162 108L162 114L168 114L168 168L162 168L162 174L204 174L204 168L216 168L216 162L222 162L222 156L228 156L228 126L222 126L222 120L216 120L216 114L204 114L204 108L162 108ZM186 117L198 117L198 122.5L204 122.5L204 128.5L210 128.5L210 153.5L204 153.5L204 159.5L198 159.5L198 165L180 165L180 122.5L186 122.5L186 117Z" fill="#ab1315" fill-rule="nonzero" opacity="1" stroke="#ab1315" stroke-linecap="butt" stroke-linejoin="miter" stroke-width="1"/>
<path d="M144 99L144 105L150 105L150 111L156 111L156 105L204 105L204 99L144 99ZM204 105L204 111L216 111L216 105L204 105ZM216 111L216 117L222 117L222 111L216 111ZM222 117L222 123L228 123L228 117L222 117ZM228 123L228 129L228 135L228 141L228 147L228 153L228 159L234 159L234 153L234 147L234 141L234 135L234 129L234 123L228 123ZM228 159L222 159L222 165L228 165L228 159ZM222 165L216 165L216 171L222 171L222 165ZM216 171L204 171L204 177L216 177L216 171ZM204 177L168 177L162 177L156 177L156 171L150 171L150 177L144 177L144 183L144 189L150 189L150 183L156 183L162 183L168 183L204 183L204 177ZM156 171L162 171L162 165L156 165L156 171ZM162 165L168 165L168 159L168 153L168 147L168 141L168 135L168 129L168 123L168 117L162 117L162 123L162 129L162 135L162 141L162 147L162 153L162 159L162 165ZM162 117L162 111L156 111L156 117L162 117ZM186 117L186 123L198 123L198 117L186 117ZM198 123L198 129L204 129L204 123L198 123ZM204 129L204 135L204 141L204 147L204 153L210 153L210 147L210 141L210 135L210 129L204 129ZM204 153L198 153L198 159L204 159L204 153ZM198 159L186 159L186 153L186 147L186 141L186 135L186 129L186 123L180 123L180 129L180 135L180 141L180 147L180 153L180 159L180 165L198 165L198 159Z" fill="#000000" fill-rule="nonzero" opacity="1" stroke="none"/>
<path d="M156 105L156 111L162 111L162 105L156 105ZM162 111L162 117L168 117L168 111L162 111ZM168 117L168 123L168 129L168 135L168 141L168 147L168 153L168 159L168 165L174 165L174 159L174 153L174 147L174 141L174 135L174 129L174 123L174 117L168 117ZM168 165L162 165L162 171L156 171L156 177L204 177L204 171L168 171L168 165ZM204 171L216 171L216 165L204 165L204 171ZM216 165L222 165L222 159L216 159L216 165ZM222 159L228 159L228 153L228 147L228 141L222 141L222 147L222 153L222 159Z" fill="#750700" fill-rule="nonzero" opacity="1" stroke="none"/>
<path d="M156 105L156 111L204 111L204 105L156 105ZM204 111L204 117L216 117L216 111L204 111ZM216 117L216 123L222 123L222 117L216 117ZM222 123L222 129L228 129L228 123L222 123Z" fill="#e0542a" fill-rule="nonzero" opacity="1" stroke="none"/>
</g>
<g opacity="0">
<path d="M258 132L294 132L294 138L300 138L300 150L306 150L306 156L300 156L300 168L294 168L294 174L258 174L258 168L252 168L252 156L246 156L246 150L252 150L252 138L258 138L258 132Z" fill="#ab1315" fill-rule="nonzero" opacity="1" stroke="#ab1315" stroke-linecap="butt" stroke-linejoin="miter" stroke-width="1"/>
<path d="M258 123L258 129L294 129L294 123L258 123ZM294 129L294 135L300 135L300 129L294 129ZM300 135L300 141L300 147L306 147L306 141L306 135L300 135ZM306 147L306 153L306 159L312 159L312 153L312 147L306 147ZM306 159L300 159L300 165L300 171L306 171L306 165L306 159ZM300 171L294 171L294 177L300 177L300 171ZM294 177L258 177L258 183L294 183L294 177ZM258 177L258 171L252 171L252 177L258 177ZM252 171L252 165L252 159L246 159L246 165L246 171L252 171ZM246 159L246 153L246 147L240 147L240 153L240 159L246 159ZM246 147L252 147L252 141L252 135L246 135L246 141L246 147ZM252 135L258 135L258 129L252 129L252 135ZM270 141L270 147L270 153L270 159L270 165L282 165L282 159L282 153L282 147L282 141L270 141Z" fill="#000000" fill-rule="nonzero" opacity="1" stroke="none"/>
<path d="M258 129L258 135L288 135L288 141L294 141L294 147L300 147L300 141L300 135L294 135L294 129L258 129ZM300 147L300 153L306 153L306 147L300 147Z" fill="#e0542a" fill-rule="nonzero" opacity="1" stroke="none"/>
<path d="M246 147L246 153L246 159L252 159L252 153L252 147L246 147ZM252 159L252 165L252 171L258 171L258 177L294 177L294 171L264 171L264 165L258 165L258 159L252 159ZM294 171L300 171L300 165L300 159L294 159L294 165L294 171ZM300 159L306 159L306 153L300 153L300 159Z" fill="#750700" fill-rule="nonzero" opacity="1" stroke="none"/>
</g>
<g opacity="1" vectornator:layerName="Group">
<path d="M114 36L150 36L150 42L156 42L156 54L162 54L162 60L156 60L156 72L150 72L150 78L114 78L114 72L108 72L108 60L102 60L102 54L108 54L108 39.5L114 39.5L114 36Z" fill="#ab1315" fill-rule="nonzero" opacity="1" stroke="#ab1315" stroke-linecap="butt" stroke-linejoin="miter" stroke-width="1"/>
<path d="M114 27L114 33L150 33L150 27L114 27ZM150 33L150 39L156 39L156 33L150 33ZM156 39L156 45L156 51L162 51L162 45L162 39L156 39ZM162 51L162 57L162 63L168 63L168 57L168 51L162 51ZM162 63L156 63L156 69L156 75L162 75L162 69L162 63ZM156 75L150 75L150 81L156 81L156 75ZM150 81L114 81L114 87L150 87L150 81ZM114 81L114 75L108 75L108 81L114 81ZM108 75L108 69L108 63L102 63L102 69L102 75L108 75ZM102 63L102 57L102 51L96 51L96 57L96 63L102 63ZM102 51L108 51L108 45L108 39L102 39L102 45L102 51ZM108 39L114 39L114 33L108 33L108 39ZM126 45L126 51L126 57L126 63L126 69L138 69L138 63L138 57L138 51L138 45L126 45Z" fill="#000000" fill-rule="nonzero" opacity="1" stroke="none"/>
<path d="M114 33L114 39L144 39L144 45L150 45L150 51L156 51L156 45L156 39L150 39L150 33L114 33ZM156 51L156 57L162 57L162 51L156 51Z" fill="#e0542a" fill-rule="nonzero" opacity="1" stroke="none"/>
<path d="M102 51L102 57L102 63L108 63L108 57L108 51L102 51ZM108 63L108 69L108 75L114 75L114 81L150 81L150 75L120 75L120 69L114 69L114 63L108 63ZM150 75L156 75L156 69L156 63L150 63L150 69L150 75ZM156 63L162 63L162 57L156 57L156 63Z" fill="#750700" fill-rule="nonzero" opacity="1" stroke="none"/>
</g>
<g opacity="1" vectornator:layerName="Group">
<path d="M258 132L294 132L294 138L300 138L300 150L306 150L306 156L300 156L300 168L294 168L294 174L258 174L258 168L252 168L252 156L246 156L246 150L252 150L252 135.5L258 135.5L258 132Z" fill="#ab1315" fill-rule="nonzero" opacity="1" stroke="#ab1315" stroke-linecap="butt" stroke-linejoin="miter" stroke-width="1"/>
<path d="M258 123L258 129L294 129L294 123L258 123ZM294 129L294 135L300 135L300 129L294 129ZM300 135L300 141L300 147L306 147L306 141L306 135L300 135ZM306 147L306 153L306 159L312 159L312 153L312 147L306 147ZM306 159L300 159L300 165L300 171L306 171L306 165L306 159ZM300 171L294 171L294 177L300 177L300 171ZM294 177L258 177L258 183L294 183L294 177ZM258 177L258 171L252 171L252 177L258 177ZM252 171L252 165L252 159L246 159L246 165L246 171L252 171ZM246 159L246 153L246 147L240 147L240 153L240 159L246 159ZM246 147L252 147L252 141L252 135L246 135L246 141L246 147ZM252 135L258 135L258 129L252 129L252 135ZM270 141L270 147L270 153L270 159L270 165L282 165L282 159L282 153L282 147L282 141L270 141Z" fill="#000000" fill-rule="nonzero" opacity="1" stroke="none"/>
<path d="M258 129L258 135L288 135L288 141L294 141L294 147L300 147L300 141L300 135L294 135L294 129L258 129ZM300 147L300 153L306 153L306 147L300 147Z" fill="#e0542a" fill-rule="nonzero" opacity="1" stroke="none"/>
<path d="M246 147L246 153L246 159L252 159L252 153L252 147L246 147ZM252 159L252 165L252 171L258 171L258 177L294 177L294 171L264 171L264 165L258 165L258 159L252 159ZM294 171L300 171L300 165L300 159L294 159L294 165L294 171ZM300 159L306 159L306 153L300 153L300 159Z" fill="#750700" fill-rule="nonzero" opacity="1" stroke="none"/>
</g>
<g opacity="1" vectornator:layerName="Group">
<path d="M114 36L150 36L150 42L156 42L156 54L162 54L162 60L156 60L156 72L150 72L150 78L114 78L114 72L108 72L108 60L102 60L102 54L108 54L108 39.5L114 39.5L114 36Z" fill="#ab1315" fill-rule="nonzero" opacity="1" stroke="#ab1315" stroke-linecap="butt" stroke-linejoin="miter" stroke-width="1"/>
<path d="M114 27L114 33L150 33L150 27L114 27ZM150 33L150 39L156 39L156 33L150 33ZM156 39L156 45L156 51L162 51L162 45L162 39L156 39ZM162 51L162 57L162 63L168 63L168 57L168 51L162 51ZM162 63L156 63L156 69L156 75L162 75L162 69L162 63ZM156 75L150 75L150 81L156 81L156 75ZM150 81L114 81L114 87L150 87L150 81ZM114 81L114 75L108 75L108 81L114 81ZM108 75L108 69L108 63L102 63L102 69L102 75L108 75ZM102 63L102 57L102 51L96 51L96 57L96 63L102 63ZM102 51L108 51L108 45L108 39L102 39L102 45L102 51ZM108 39L114 39L114 33L108 33L108 39ZM126 45L126 51L126 57L126 63L126 69L138 69L138 63L138 57L138 51L138 45L126 45Z" fill="#000000" fill-rule="nonzero" opacity="1" stroke="none"/>
<path d="M114 33L114 39L144 39L144 45L150 45L150 51L156 51L156 45L156 39L150 39L150 33L114 33ZM156 51L156 57L162 57L162 51L156 51Z" fill="#e0542a" fill-rule="nonzero" opacity="1" stroke="none"/>
<path d="M102 51L102 57L102 63L108 63L108 57L108 51L102 51ZM108 63L108 69L108 75L114 75L114 81L150 81L150 75L120 75L120 69L114 69L114 63L108 63ZM150 75L156 75L156 69L156 63L150 63L150 69L150 75ZM156 63L162 63L162 57L156 57L156 63Z" fill="#750700" fill-rule="nonzero" opacity="1" stroke="none"/>
</g>
<g opacity="1" vectornator:layerName="Group">
<path d="M258 132L294 132L294 138L300 138L300 150L306 150L306 156L300 156L300 168L294 168L294 174L258 174L258 168L252 168L252 156L246 156L246 150L252 150L252 135.5L258 135.5L258 132Z" fill="#ab1315" fill-rule="nonzero" opacity="1" stroke="#ab1315" stroke-linecap="butt" stroke-linejoin="miter" stroke-width="1"/>
<path d="M258 123L258 129L294 129L294 123L258 123ZM294 129L294 135L300 135L300 129L294 129ZM300 135L300 141L300 147L306 147L306 141L306 135L300 135ZM306 147L306 153L306 159L312 159L312 153L312 147L306 147ZM306 159L300 159L300 165L300 171L306 171L306 165L306 159ZM300 171L294 171L294 177L300 177L300 171ZM294 177L258 177L258 183L294 183L294 177ZM258 177L258 171L252 171L252 177L258 177ZM252 171L252 165L252 159L246 159L246 165L246 171L252 171ZM246 159L246 153L246 147L240 147L240 153L240 159L246 159ZM246 147L252 147L252 141L252 135L246 135L246 141L246 147ZM252 135L258 135L258 129L252 129L252 135ZM270 141L270 147L270 153L270 159L270 165L282 165L282 159L282 153L282 147L282 141L270 141Z" fill="#000000" fill-rule="nonzero" opacity="1" stroke="none"/>
<path d="M258 129L258 135L288 135L288 141L294 141L294 147L300 147L300 141L300 135L294 135L294 129L258 129ZM300 147L300 153L306 153L306 147L300 147Z" fill="#e0542a" fill-rule="nonzero" opacity="1" stroke="none"/>
<path d="M246 147L246 153L246 159L252 159L252 153L252 147L246 147ZM252 159L252 165L252 171L258 171L258 177L294 177L294 171L264 171L264 165L258 165L258 159L252 159ZM294 171L300 171L300 165L300 159L294 159L294 165L294 171ZM300 159L306 159L306 153L300 153L300 159Z" fill="#750700" fill-rule="nonzero" opacity="1" stroke="none"/>
</g>
<g opacity="0">
<path d="M312 123L312 129L318 129L318 135L318 141L318 147L318 153L318 159L318 165L318 171L318 177L312 177L312 183L318 183L324 183L330 183L330 177L324 177L324 171L324 165L324 159L324 153L324 147L324 141L324 135L324 129L330 129L336 129L336 123L330 123L312 123ZM336 129L336 135L342 135L342 129L336 129ZM342 135L342 141L348 141L348 135L342 135ZM348 141L348 147L354 147L354 141L348 141ZM354 147L354 153L360 153L360 159L366 159L366 153L366 147L366 141L366 135L366 129L360 129L360 135L360 141L360 147L354 147ZM366 129L372 129L372 135L372 141L372 147L372 153L372 159L372 165L372 171L372 177L360 177L360 183L384 183L384 177L378 177L378 171L378 165L378 159L378 153L378 147L378 141L378 135L378 129L384 129L384 123L366 123L366 129ZM360 177L360 171L354 171L354 177L360 177ZM354 171L354 165L348 165L348 171L354 171ZM348 165L348 159L342 159L342 165L348 165ZM342 159L342 153L336 153L336 147L330 147L330 153L330 159L330 165L330 171L330 177L336 177L336 171L336 165L336 159L342 159ZM312 183L306 183L306 189L312 189L312 183Z" fill="#000000" fill-rule="nonzero" opacity="1" stroke="none"/>
<path d="M324 129L324 135L324 141L324 147L324 153L324 159L324 165L324 171L324 177L330 177L330 171L330 165L330 159L330 153L330 147L336 147L336 153L342 153L342 159L348 159L348 165L354 165L354 171L360 171L360 177L372 177L372 171L372 165L372 159L372 153L372 147L372 141L372 135L372 129L366 129L366 135L366 141L366 147L366 153L366 159L360 159L360 153L354 153L354 147L348 147L348 141L342 141L342 135L336 135L336 129L330 129L324 129Z" fill="#ab1315" fill-rule="nonzero" opacity="1" stroke="none"/>
<path d="M324 141L324 147L324 153L324 159L324 165L324 171L324 177L330 177L330 171L330 165L330 159L330 153L330 147L330 141L324 141ZM336 147L336 153L342 153L342 147L336 147ZM342 153L342 159L348 159L348 153L342 153ZM348 159L348 165L354 165L354 159L348 159ZM354 165L354 171L360 171L360 165L354 165ZM360 171L360 177L372 177L372 171L360 171Z" fill="#750700" fill-rule="nonzero" opacity="1" stroke="none"/>
<path d="M324 129L324 135L336 135L336 129L324 129ZM336 135L336 141L342 141L342 135L336 135ZM342 141L342 147L348 147L348 141L342 141ZM348 147L348 153L354 153L354 147L348 147ZM354 153L354 159L360 159L360 153L354 153ZM360 159L360 165L366 165L366 159L360 159ZM366 159L372 159L372 153L372 147L372 141L372 135L372 129L366 129L366 135L366 141L366 147L366 153L366 159Z" fill="#e0542a" fill-rule="nonzero" opacity="1" stroke="none"/>
</g>
<g opacity="1">
<path d="M168 27L168 33L174 33L174 39L174 45L174 51L174 57L174 63L174 69L174 75L174 81L168 81L168 87L174 87L180 87L186 87L186 81L180 81L180 75L180 69L180 63L180 57L180 51L180 45L180 39L180 33L186 33L192 33L192 27L186 27L168 27ZM192 33L192 39L198 39L198 33L192 33ZM198 39L198 45L204 45L204 39L198 39ZM204 45L204 51L210 51L210 45L204 45ZM210 51L210 57L216 57L216 63L222 63L222 57L222 51L222 45L222 39L222 33L216 33L216 39L216 45L216 51L210 51ZM222 33L228 33L228 39L228 45L228 51L228 57L228 63L228 69L228 75L228 81L216 81L216 87L240 87L240 81L234 81L234 75L234 69L234 63L234 57L234 51L234 45L234 39L234 33L240 33L240 27L222 27L222 33ZM216 81L216 75L210 75L210 81L216 81ZM210 75L210 69L204 69L204 75L210 75ZM204 69L204 63L198 63L198 69L204 69ZM198 63L198 57L192 57L192 51L186 51L186 57L186 63L186 69L186 75L186 81L192 81L192 75L192 69L192 63L198 63ZM168 87L162 87L162 93L168 93L168 87Z" fill="#000000" fill-rule="nonzero" opacity="1" stroke="none"/>
<path d="M180 33L180 39L180 45L180 51L180 57L180 63L180 69L180 75L180 81L186 81L186 75L186 69L186 63L186 57L186 51L192 51L192 57L198 57L198 63L204 63L204 69L210 69L210 75L216 75L216 81L228 81L228 75L228 69L228 63L228 57L228 51L228 45L228 39L228 33L222 33L222 39L222 45L222 51L222 57L222 63L216 63L216 57L210 57L210 51L204 51L204 45L198 45L198 39L192 39L192 33L186 33L180 33Z" fill="#ab1315" fill-rule="nonzero" opacity="1" stroke="none"/>
<path d="M180 45L180 51L180 57L180 63L180 69L180 75L180 81L186 81L186 75L186 69L186 63L186 57L186 51L186 45L180 45ZM192 51L192 57L198 57L198 51L192 51ZM198 57L198 63L204 63L204 57L198 57ZM204 63L204 69L210 69L210 63L204 63ZM210 69L210 75L216 75L216 69L210 69ZM216 75L216 81L228 81L228 75L216 75Z" fill="#750700" fill-rule="nonzero" opacity="1" stroke="none"/>
<path d="M180 33L180 39L192 39L192 33L180 33ZM192 39L192 45L198 45L198 39L192 39ZM198 45L198 51L204 51L204 45L198 45ZM204 51L204 57L210 57L210 51L204 51ZM210 57L210 63L216 63L216 57L210 57ZM216 63L216 69L222 69L222 63L216 63ZM222 63L228 63L228 57L228 51L228 45L228 39L228 33L222 33L222 39L222 45L222 51L222 57L222 63Z" fill="#e0542a" fill-rule="nonzero" opacity="1" stroke="none"/>
</g>
<g opacity="1">
<path d="M312 123L312 129L318 129L318 135L318 141L318 147L318 153L318 159L318 165L318 171L318 177L312 177L312 183L318 183L324 183L330 183L330 177L324 177L324 171L324 165L324 159L324 153L324 147L324 141L324 135L324 129L330 129L336 129L336 123L330 123L312 123ZM336 129L336 135L342 135L342 129L336 129ZM342 135L342 141L348 141L348 135L342 135ZM348 141L348 147L354 147L354 141L348 141ZM354 147L354 153L360 153L360 159L366 159L366 153L366 147L366 141L366 135L366 129L360 129L360 135L360 141L360 147L354 147ZM366 129L372 129L372 135L372 141L372 147L372 153L372 159L372 165L372 171L372 177L360 177L360 183L384 183L384 177L378 177L378 171L378 165L378 159L378 153L378 147L378 141L378 135L378 129L384 129L384 123L366 123L366 129ZM360 177L360 171L354 171L354 177L360 177ZM354 171L354 165L348 165L348 171L354 171ZM348 165L348 159L342 159L342 165L348 165ZM342 159L342 153L336 153L336 147L330 147L330 153L330 159L330 165L330 171L330 177L336 177L336 171L336 165L336 159L342 159ZM312 183L306 183L306 189L312 189L312 183Z" fill="#000000" fill-rule="nonzero" opacity="1" stroke="none"/>
<path d="M324 129L324 135L324 141L324 147L324 153L324 159L324 165L324 171L324 177L330 177L330 171L330 165L330 159L330 153L330 147L336 147L336 153L342 153L342 159L348 159L348 165L354 165L354 171L360 171L360 177L372 177L372 171L372 165L372 159L372 153L372 147L372 141L372 135L372 129L366 129L366 135L366 141L366 147L366 153L366 159L360 159L360 153L354 153L354 147L348 147L348 141L342 141L342 135L336 135L336 129L330 129L324 129Z" fill="#ab1315" fill-rule="nonzero" opacity="1" stroke="none"/>
<path d="M324 141L324 147L324 153L324 159L324 165L324 171L324 177L330 177L330 171L330 165L330 159L330 153L330 147L330 141L324 141ZM336 147L336 153L342 153L342 147L336 147ZM342 153L342 159L348 159L348 153L342 153ZM348 159L348 165L354 165L354 159L348 159ZM354 165L354 171L360 171L360 165L354 165ZM360 171L360 177L372 177L372 171L360 171Z" fill="#750700" fill-rule="nonzero" opacity="1" stroke="none"/>
<path d="M324 129L324 135L336 135L336 129L324 129ZM336 135L336 141L342 141L342 135L336 135ZM342 141L342 147L348 147L348 141L342 141ZM348 147L348 153L354 153L354 147L348 147ZM354 153L354 159L360 159L360 153L354 153ZM360 159L360 165L366 165L366 159L360 159ZM366 159L372 159L372 153L372 147L372 141L372 135L372 129L366 129L366 135L366 141L366 147L366 153L366 159Z" fill="#e0542a" fill-rule="nonzero" opacity="1" stroke="none"/>
</g>
<g opacity="1">
<path d="M168 27L168 33L174 33L174 39L174 45L174 51L174 57L174 63L174 69L174 75L174 81L168 81L168 87L174 87L180 87L186 87L186 81L180 81L180 75L180 69L180 63L180 57L180 51L180 45L180 39L180 33L186 33L192 33L192 27L186 27L168 27ZM192 33L192 39L198 39L198 33L192 33ZM198 39L198 45L204 45L204 39L198 39ZM204 45L204 51L210 51L210 45L204 45ZM210 51L210 57L216 57L216 63L222 63L222 57L222 51L222 45L222 39L222 33L216 33L216 39L216 45L216 51L210 51ZM222 33L228 33L228 39L228 45L228 51L228 57L228 63L228 69L228 75L228 81L216 81L216 87L240 87L240 81L234 81L234 75L234 69L234 63L234 57L234 51L234 45L234 39L234 33L240 33L240 27L222 27L222 33ZM216 81L216 75L210 75L210 81L216 81ZM210 75L210 69L204 69L204 75L210 75ZM204 69L204 63L198 63L198 69L204 69ZM198 63L198 57L192 57L192 51L186 51L186 57L186 63L186 69L186 75L186 81L192 81L192 75L192 69L192 63L198 63ZM168 87L162 87L162 93L168 93L168 87Z" fill="#000000" fill-rule="nonzero" opacity="1" stroke="none"/>
<path d="M180 33L180 39L180 45L180 51L180 57L180 63L180 69L180 75L180 81L186 81L186 75L186 69L186 63L186 57L186 51L192 51L192 57L198 57L198 63L204 63L204 69L210 69L210 75L216 75L216 81L228 81L228 75L228 69L228 63L228 57L228 51L228 45L228 39L228 33L222 33L222 39L222 45L222 51L222 57L222 63L216 63L216 57L210 57L210 51L204 51L204 45L198 45L198 39L192 39L192 33L186 33L180 33Z" fill="#ab1315" fill-rule="nonzero" opacity="1" stroke="none"/>
<path d="M180 45L180 51L180 57L180 63L180 69L180 75L180 81L186 81L186 75L186 69L186 63L186 57L186 51L186 45L180 45ZM192 51L192 57L198 57L198 51L192 51ZM198 57L198 63L204 63L204 57L198 57ZM204 63L204 69L210 69L210 63L204 63ZM210 69L210 75L216 75L216 69L210 69ZM216 75L216 81L228 81L228 75L216 75Z" fill="#750700" fill-rule="nonzero" opacity="1" stroke="none"/>
<path d="M180 33L180 39L192 39L192 33L180 33ZM192 39L192 45L198 45L198 39L192 39ZM198 45L198 51L204 51L204 45L198 45ZM204 51L204 57L210 57L210 51L204 51ZM210 57L210 63L216 63L216 57L210 57ZM216 63L216 69L222 69L222 63L216 63ZM222 63L228 63L228 57L228 51L228 45L228 39L228 33L222 33L222 39L222 45L222 51L222 57L222 63Z" fill="#e0542a" fill-rule="nonzero" opacity="1" stroke="none"/>
</g>
<g opacity="1">
<path d="M312 123L312 129L318 129L318 135L318 141L318 147L318 153L318 159L318 165L318 171L318 177L312 177L312 183L318 183L324 183L330 183L330 177L324 177L324 171L324 165L324 159L324 153L324 147L324 141L324 135L324 129L330 129L336 129L336 123L330 123L312 123ZM336 129L336 135L342 135L342 129L336 129ZM342 135L342 141L348 141L348 135L342 135ZM348 141L348 147L354 147L354 141L348 141ZM354 147L354 153L360 153L360 159L366 159L366 153L366 147L366 141L366 135L366 129L360 129L360 135L360 141L360 147L354 147ZM366 129L372 129L372 135L372 141L372 147L372 153L372 159L372 165L372 171L372 177L360 177L360 183L384 183L384 177L378 177L378 171L378 165L378 159L378 153L378 147L378 141L378 135L378 129L384 129L384 123L366 123L366 129ZM360 177L360 171L354 171L354 177L360 177ZM354 171L354 165L348 165L348 171L354 171ZM348 165L348 159L342 159L342 165L348 165ZM342 159L342 153L336 153L336 147L330 147L330 153L330 159L330 165L330 171L330 177L336 177L336 171L336 165L336 159L342 159ZM312 183L306 183L306 189L312 189L312 183Z" fill="#000000" fill-rule="nonzero" opacity="1" stroke="none"/>
<path d="M324 129L324 135L324 141L324 147L324 153L324 159L324 165L324 171L324 177L330 177L330 171L330 165L330 159L330 153L330 147L336 147L336 153L342 153L342 159L348 159L348 165L354 165L354 171L360 171L360 177L372 177L372 171L372 165L372 159L372 153L372 147L372 141L372 135L372 129L366 129L366 135L366 141L366 147L366 153L366 159L360 159L360 153L354 153L354 147L348 147L348 141L342 141L342 135L336 135L336 129L330 129L324 129Z" fill="#ab1315" fill-rule="nonzero" opacity="1" stroke="none"/>
<path d="M324 141L324 147L324 153L324 159L324 165L324 171L324 177L330 177L330 171L330 165L330 159L330 153L330 147L330 141L324 141ZM336 147L336 153L342 153L342 147L336 147ZM342 153L342 159L348 159L348 153L342 153ZM348 159L348 165L354 165L354 159L348 159ZM354 165L354 171L360 171L360 165L354 165ZM360 171L360 177L372 177L372 171L360 171Z" fill="#750700" fill-rule="nonzero" opacity="1" stroke="none"/>
<path d="M324 129L324 135L336 135L336 129L324 129ZM336 135L336 141L342 141L342 135L336 135ZM342 141L342 147L348 147L348 141L342 141ZM348 147L348 153L354 153L354 147L348 147ZM354 153L354 159L360 159L360 153L354 153ZM360 159L360 165L366 165L366 159L360 159ZM366 159L372 159L372 153L372 147L372 141L372 135L372 129L366 129L366 135L366 141L366 147L366 153L366 159Z" fill="#e0542a" fill-rule="nonzero" opacity="1" stroke="none"/>
</g>
<g opacity="0">
<path d="M390 123L390 129L396 129L396 135L402 135L402 141L408 141L408 135L402 135L402 129L456 129L456 123L390 123ZM456 129L456 135L432 135L432 141L426 141L426 147L444 147L444 141L462 141L462 135L462 129L456 129ZM462 141L462 147L468 147L468 141L462 141ZM444 147L444 153L444 159L450 159L450 153L450 147L444 147ZM444 159L426 159L426 165L432 165L432 171L462 171L462 177L468 177L468 171L468 165L444 165L444 159ZM462 177L408 177L408 171L414 171L414 165L414 159L414 153L414 147L414 141L408 141L408 147L408 153L408 159L408 165L408 171L402 171L402 177L396 177L396 183L462 183L462 177ZM396 183L390 183L390 189L396 189L396 183Z" fill="#000000" fill-rule="nonzero" opacity="1" stroke="none"/>
<path d="M408 129L408 135L414 135L414 141L414 147L414 153L414 159L414 165L414 171L414 177L462 177L462 171L432 171L432 165L426 165L426 159L444 159L444 153L444 147L426 147L426 141L432 141L432 135L456 135L456 129L408 129Z" fill="#ab1315" fill-rule="nonzero" opacity="1" stroke="none"/>
<path d="M402 129L402 135L456 135L456 129L402 129ZM432 147L432 153L444 153L444 147L432 147Z" fill="#e0542a" fill-rule="nonzero" opacity="1" stroke="none"/>
<path d="M408 135L408 141L414 141L414 147L414 153L414 159L414 165L414 171L408 171L408 177L462 177L462 171L420 171L420 165L420 159L420 153L420 147L420 141L420 135L414 135L408 135ZM426 153L426 159L444 159L444 153L426 153Z" fill="#750700" fill-rule="nonzero" opacity="1" stroke="none"/>
</g>
<g opacity="1">
<path d="M246 27L246 33L252 33L252 39L258 39L258 45L264 45L264 39L258 39L258 33L312 33L312 27L246 27ZM312 33L312 39L288 39L288 45L282 45L282 51L300 51L300 45L318 45L318 39L318 33L312 33ZM318 45L318 51L324 51L324 45L318 45ZM300 51L300 57L300 63L306 63L306 57L306 51L300 51ZM300 63L282 63L282 69L288 69L288 75L318 75L318 81L324 81L324 75L324 69L300 69L300 63ZM318 81L264 81L264 75L270 75L270 69L270 63L270 57L270 51L270 45L264 45L264 51L264 57L264 63L264 69L264 75L258 75L258 81L252 81L252 87L318 87L318 81ZM252 87L246 87L246 93L252 93L252 87Z" fill="#000000" fill-rule="nonzero" opacity="1" stroke="none"/>
<path d="M264 33L264 39L270 39L270 45L270 51L270 57L270 63L270 69L270 75L270 81L318 81L318 75L288 75L288 69L282 69L282 63L300 63L300 57L300 51L282 51L282 45L288 45L288 39L312 39L312 33L264 33Z" fill="#ab1315" fill-rule="nonzero" opacity="1" stroke="none"/>
<path d="M258 33L258 39L312 39L312 33L258 33ZM288 51L288 57L300 57L300 51L288 51Z" fill="#e0542a" fill-rule="nonzero" opacity="1" stroke="none"/>
<path d="M264 39L264 45L270 45L270 51L270 57L270 63L270 69L270 75L264 75L264 81L318 81L318 75L276 75L276 69L276 63L276 57L276 51L276 45L276 39L270 39L264 39ZM282 57L282 63L300 63L300 57L282 57Z" fill="#750700" fill-rule="nonzero" opacity="1" stroke="none"/>
</g>
<g opacity="1">
<path d="M390 123L390 129L396 129L396 135L402 135L402 141L408 141L408 135L402 135L402 129L456 129L456 123L390 123ZM456 129L456 135L432 135L432 141L426 141L426 147L444 147L444 141L462 141L462 135L462 129L456 129ZM462 141L462 147L468 147L468 141L462 141ZM444 147L444 153L444 159L450 159L450 153L450 147L444 147ZM444 159L426 159L426 165L432 165L432 171L462 171L462 177L468 177L468 171L468 165L444 165L444 159ZM462 177L408 177L408 171L414 171L414 165L414 159L414 153L414 147L414 141L408 141L408 147L408 153L408 159L408 165L408 171L402 171L402 177L396 177L396 183L462 183L462 177ZM396 183L390 183L390 189L396 189L396 183Z" fill="#000000" fill-rule="nonzero" opacity="1" stroke="none"/>
<path d="M408 129L408 135L414 135L414 141L414 147L414 153L414 159L414 165L414 171L414 177L462 177L462 171L432 171L432 165L426 165L426 159L444 159L444 153L444 147L426 147L426 141L432 141L432 135L456 135L456 129L408 129Z" fill="#ab1315" fill-rule="nonzero" opacity="1" stroke="none"/>
<path d="M402 129L402 135L456 135L456 129L402 129ZM432 147L432 153L444 153L444 147L432 147Z" fill="#e0542a" fill-rule="nonzero" opacity="1" stroke="none"/>
<path d="M408 135L408 141L414 141L414 147L414 153L414 159L414 165L414 171L408 171L408 177L462 177L462 171L420 171L420 165L420 159L420 153L420 147L420 141L420 135L414 135L408 135ZM426 153L426 159L444 159L444 153L426 153Z" fill="#750700" fill-rule="nonzero" opacity="1" stroke="none"/>
</g>
<g opacity="1">
<path d="M246 27L246 33L252 33L252 39L258 39L258 45L264 45L264 39L258 39L258 33L312 33L312 27L246 27ZM312 33L312 39L288 39L288 45L282 45L282 51L300 51L300 45L318 45L318 39L318 33L312 33ZM318 45L318 51L324 51L324 45L318 45ZM300 51L300 57L300 63L306 63L306 57L306 51L300 51ZM300 63L282 63L282 69L288 69L288 75L318 75L318 81L324 81L324 75L324 69L300 69L300 63ZM318 81L264 81L264 75L270 75L270 69L270 63L270 57L270 51L270 45L264 45L264 51L264 57L264 63L264 69L264 75L258 75L258 81L252 81L252 87L318 87L318 81ZM252 87L246 87L246 93L252 93L252 87Z" fill="#000000" fill-rule="nonzero" opacity="1" stroke="none"/>
<path d="M264 33L264 39L270 39L270 45L270 51L270 57L270 63L270 69L270 75L270 81L318 81L318 75L288 75L288 69L282 69L282 63L300 63L300 57L300 51L282 51L282 45L288 45L288 39L312 39L312 33L264 33Z" fill="#ab1315" fill-rule="nonzero" opacity="1" stroke="none"/>
<path d="M258 33L258 39L312 39L312 33L258 33ZM288 51L288 57L300 57L300 51L288 51Z" fill="#e0542a" fill-rule="nonzero" opacity="1" stroke="none"/>
<path d="M264 39L264 45L270 45L270 51L270 57L270 63L270 69L270 75L264 75L264 81L318 81L318 75L276 75L276 69L276 63L276 57L276 51L276 45L276 39L270 39L264 39ZM282 57L282 63L300 63L300 57L282 57Z" fill="#750700" fill-rule="nonzero" opacity="1" stroke="none"/>
</g>
<g opacity="1">
<path d="M390 123L390 129L396 129L396 135L402 135L402 141L408 141L408 135L402 135L402 129L456 129L456 123L390 123ZM456 129L456 135L432 135L432 141L426 141L426 147L444 147L444 141L462 141L462 135L462 129L456 129ZM462 141L462 147L468 147L468 141L462 141ZM444 147L444 153L444 159L450 159L450 153L450 147L444 147ZM444 159L426 159L426 165L432 165L432 171L462 171L462 177L468 177L468 171L468 165L444 165L444 159ZM462 177L408 177L408 171L414 171L414 165L414 159L414 153L414 147L414 141L408 141L408 147L408 153L408 159L408 165L408 171L402 171L402 177L396 177L396 183L462 183L462 177ZM396 183L390 183L390 189L396 189L396 183Z" fill="#000000" fill-rule="nonzero" opacity="1" stroke="none"/>
<path d="M408 129L408 135L414 135L414 141L414 147L414 153L414 159L414 165L414 171L414 177L462 177L462 171L432 171L432 165L426 165L426 159L444 159L444 153L444 147L426 147L426 141L432 141L432 135L456 135L456 129L408 129Z" fill="#ab1315" fill-rule="nonzero" opacity="1" stroke="none"/>
<path d="M402 129L402 135L456 135L456 129L402 129ZM432 147L432 153L444 153L444 147L432 147Z" fill="#e0542a" fill-rule="nonzero" opacity="1" stroke="none"/>
<path d="M408 135L408 141L414 141L414 147L414 153L414 159L414 165L414 171L408 171L408 177L462 177L462 171L420 171L420 165L420 159L420 153L420 147L420 141L420 135L414 135L408 135ZM426 153L426 159L444 159L444 153L426 153Z" fill="#750700" fill-rule="nonzero" opacity="1" stroke="none"/>
</g>
</g>
</svg>
