<?xml version="1.0" encoding="UTF-8" standalone="no"?>
<!DOCTYPE svg PUBLIC "-//W3C//DTD SVG 1.1//EN" "http://www.w3.org/Graphics/SVG/1.1/DTD/svg11.dtd">
<!-- Created with Vectornator (http://vectornator.io/) -->
<svg height="100%" stroke-miterlimit="10" style="fill-rule:nonzero;clip-rule:evenodd;stroke-linecap:round;stroke-linejoin:round;" version="1.1" viewBox="0 0 756 192" width="100%" xml:space="preserve" xmlns="http://www.w3.org/2000/svg" xmlns:vectornator="http://vectornator.io" xmlns:xlink="http://www.w3.org/1999/xlink">
<defs/>
<clipPath id="ArtboardFrame">
<rect height="192" width="756" x="0" y="0"/>
</clipPath>
<g clip-path="url(#ArtboardFrame)" id="Layer-1" vectornator:layerName="Layer 1">
<path d="M174 54L174 138L702 138L702 126L714 126L714 114L726 114L726 102L738 102L738 90L726 90L726 78L714 78L714 66L702 66L702 54L174 54Z" fill="#c3ced5" fill-rule="nonzero" opacity="1" stroke="#c3ced5" stroke-linecap="butt" stroke-linejoin="miter" stroke-width="1" vectornator:layerName="Curve"/>
<path d="M756 78L744 78L744 66L732 66L732 54L720 54L708 54L708 66L720 66L720 78L732 78L732 90L744 90L744 102L732 102L732 114L720 114L720 126L708 126L708 138L720 138L732 138L732 126L744 126L744 114L756 114L756 78ZM708 138L168 138L168 174L156 174L144 174L144 162L132 162L132 138L120 138L120 174L132 174L132 186L144 186L156 186L168 186L180 186L180 150L192 150C192 150 150 150 204 150C258 150 216 150 216 150L228 150L240 150L252 150L264 150L276 150L288 150L300 150L312 150L324 150L336 150L348 150L360 150L372 150L384 150L396 150L408 150L420 150L432 150L444 150L456 150L468 150L480 150L492 150L504 150L516 150L528 150L540 150L552 150L564 150L576 150L588 150L600 150L612 150L624 150L636 150L648 150L660 150L672 150L684 150L696 150L708 150L708 138ZM120 138L120 126L108 126L96 126L84 126L72 126L60 126L48 126L36 126L24 126L24 138L36 138L48 138L60 138L72 138L84 138L96 138L108 138L120 138ZM24 126L24 114L12 114L12 126L24 126ZM12 114L12 78L1.77636e-14 78L1.77636e-14 114L12 114ZM12 78L24 78L24 66L12 66L12 78ZM24 66L36 66L48 66L60 66L72 66L84 66L96 66L108 66L120 66L120 54L108 54L96 54L84 54L72 54L60 54L48 54L36 54L24 54L24 66ZM120 54L132 54L132 30L144 30L144 18L156 18L168 18L168 54L180 54L192 54L204 54L216 54L228 54L240 54L252 54L264 54L276 54L288 54L300 54L312 54L324 54L336 54L348 54L360 54L372 54L384 54L396 54L408 54L420 54L432 54L444 54L456 54L468 54L480 54L492 54L504 54L516 54L528 54L540 54L552 54L564 54L576 54L588 54L600 54L612 54L624 54L636 54L648 54L660 54L672 54L684 54L696 54L708 54L708 42L696 42L684 42L672 42L660 42L648 42L636 42L624 42L612 42L600 42L588 42L576 42L564 42L552 42L540 42L528 42L516 42L504 42L492 42L480 42L468 42L456 42L444 42L432 42L420 42L408 42L396 42L384 42L372 42L360 42L348 42L336 42L324 42L312 42L300 42L288 42L276 42L264 42L252 42L240 42L228 42L216 42L204 42L192 42L180 42L180 6L168 6L156 6L144 6L132 6L132 18L120 18L120 54Z" fill="#000000" fill-rule="nonzero" opacity="1" stroke="none"/>
<path d="M120 66L108 66L108 78L120 78L120 66Z" fill="#ab1315" fill-rule="nonzero" opacity="1" stroke="none"/>
<path d="M120 66L108 66L108 78L120 78L120 66Z" fill="#ab1315" fill-rule="nonzero" opacity="1" stroke="none"/>
<path d="M96 66L84 66L84 78L96 78L96 66Z" fill="#ab1315" fill-rule="nonzero" opacity="1" stroke="none"/>
<path d="M72 66L60 66L60 78L72 78L72 66Z" fill="#ab1315" fill-rule="nonzero" opacity="1" stroke="none"/>
<path d="M48 66L36 66L36 78L48 78L48 66Z" fill="#ab1315" fill-rule="nonzero" opacity="1" stroke="none"/>
<path d="M732 102L720 102L720 114L732 114L732 102ZM720 114L708 114L708 126L720 126L720 114ZM708 126L180 126L180 102L660 102L660 90L180 90L180 66L168 66L168 126L168 138L708 138L708 126Z" fill="#557185" fill-rule="nonzero" opacity="1" stroke="none"/>
<path d="M744 90L732 90L732 102L744 102L744 90ZM732 90L732 78L720 78L720 90L732 90ZM720 78L720 66L708 66L708 78L720 78ZM708 66L708 54L180 54L180 66L708 66Z" fill="#e5e5e5" fill-rule="nonzero" opacity="1" stroke="none"/>
<path d="M216 90L168 90L168 102L216 102L216 90Z" fill="#324056" fill-rule="nonzero" opacity="1" stroke="none"/>
<path d="M732 90L720 90L720 102L732 102L732 90ZM720 90L720 78L708 78L708 90L720 90ZM708 78L708 66L696 66L684 66L684 78L696 78L708 78ZM648 78L180 78L180 90L648 90L648 78Z" fill="#cddfe6" fill-rule="nonzero" opacity="1" stroke="none"/>
<path d="M732 90L720 90L720 102L732 102L732 90ZM720 102L708 102L708 114L720 114L720 102ZM708 114L696 114L684 114L684 126L696 126L708 126L708 114ZM648 102L180 102L180 114L648 114L648 102ZM180 54L168 54L168 66L180 66L180 54Z" fill="#93b6c2" fill-rule="nonzero" opacity="1" stroke="none"/>
<path d="M156 18L144 18L144 30L156 30L156 18ZM144 30L132 30L132 42L144 42L144 30ZM36 66L24 66L24 78L36 78L36 66Z" fill="#ffeec7" fill-rule="nonzero" opacity="1" stroke="none"/>
<path d="M168 18L156 18L156 30L144 30L144 42L132 42L132 54L120 54L120 90L132 90L132 78L144 78L144 66L156 66L156 54L168 54L168 18ZM36 78L24 78L12 78L12 90L24 90L24 102L36 102L36 90L36 78Z" fill="#f2ce77" fill-rule="nonzero" opacity="1" stroke="none"/>
<path d="M168 54L156 54L156 66L144 66L144 78L132 78L132 90L120 90L120 126L132 126L144 126L144 114L156 114L156 102L168 102L168 54ZM36 102L24 102L24 114L36 114L36 102ZM24 102L24 90L12 90L12 102L24 102Z" fill="#e6ad00" fill-rule="nonzero" opacity="1" stroke="none"/>
<path d="M168 102L156 102L156 114L144 114L144 126L132 126L120 126L120 138L132 138L132 162L144 162L144 174L156 174L168 174L168 102ZM36 114L24 114L24 126L36 126L36 114ZM24 114L24 102L12 102L12 114L24 114Z" fill="#b46f00" fill-rule="nonzero" opacity="1" stroke="none"/>
<path d="M120 78L108 78L108 102L120 102L120 78Z" fill="#750700" fill-rule="nonzero" opacity="1" stroke="none"/>
<path d="M120 78L108 78L108 102L120 102L120 78Z" fill="#750700" fill-rule="nonzero" opacity="1" stroke="none"/>
<path d="M96 78L84 78L84 102L96 102L96 78Z" fill="#750700" fill-rule="nonzero" opacity="1" stroke="none"/>
<path d="M72 78L60 78L60 102L72 102L72 78Z" fill="#750700" fill-rule="nonzero" opacity="1" stroke="none"/>
<path d="M48 78L36 78L36 102L48 102L48 78Z" fill="#750700" fill-rule="nonzero" opacity="1" stroke="none"/>
<path d="M120 102L108 102L108 126L120 126L120 102Z" fill="#5b0606" fill-rule="nonzero" opacity="1" stroke="none"/>
<path d="M120 102L108 102L108 126L120 126L120 102Z" fill="#5b0606" fill-rule="nonzero" opacity="1" stroke="none"/>
<path d="M96 102L84 102L84 126L96 126L96 102Z" fill="#5b0606" fill-rule="nonzero" opacity="1" stroke="none"/>
<path d="M72 102L60 102L60 126L72 126L72 102Z" fill="#5b0606" fill-rule="nonzero" opacity="1" stroke="none"/>
<path d="M48 102L36 102L36 126L48 126L48 102Z" fill="#5b0606" fill-rule="nonzero" opacity="1" stroke="none"/>
<path d="M108 66L96 66L96 78L108 78L108 66Z" fill="#e0542a" fill-rule="nonzero" opacity="1" stroke="none"/>
<path d="M108 66L96 66L96 78L108 78L108 66Z" fill="#e0542a" fill-rule="nonzero" opacity="1" stroke="none"/>
<path d="M84 66L72 66L72 78L84 78L84 66Z" fill="#e0542a" fill-rule="nonzero" opacity="1" stroke="none"/>
<path d="M60 66L48 66L48 78L60 78L60 66Z" fill="#e0542a" fill-rule="nonzero" opacity="1" stroke="none"/>
<path d="M108 78L96 78L96 102L108 102L108 78Z" fill="#713616" fill-rule="nonzero" opacity="1" stroke="none"/>
<path d="M108 78L96 78L96 102L108 102L108 78Z" fill="#713616" fill-rule="nonzero" opacity="1" stroke="none"/>
<path d="M84 78L72 78L72 102L84 102L84 78Z" fill="#713616" fill-rule="nonzero" opacity="1" stroke="none"/>
<path d="M60 78L48 78L48 102L60 102L60 78Z" fill="#713616" fill-rule="nonzero" opacity="1" stroke="none"/>
<path d="M108 102L96 102L96 126L108 126L108 102Z" fill="#440c0c" fill-rule="nonzero" opacity="1" stroke="none"/>
<path d="M108 102L96 102L96 126L108 126L108 102Z" fill="#440c0c" fill-rule="nonzero" opacity="1" stroke="none"/>
<path d="M84 102L72 102L72 126L84 126L84 102Z" fill="#440c0c" fill-rule="nonzero" opacity="1" stroke="none"/>
<path d="M60 102L48 102L48 126L60 126L60 102Z" fill="#440c0c" fill-rule="nonzero" opacity="1" stroke="none"/>
</g>
</svg>
