<?xml version="1.0" encoding="UTF-8" standalone="no"?>
<!DOCTYPE svg PUBLIC "-//W3C//DTD SVG 1.1//EN" "http://www.w3.org/Graphics/SVG/1.1/DTD/svg11.dtd">
<!-- Created with Vectornator (http://vectornator.io/) -->
<svg height="100%" stroke-miterlimit="10" style="fill-rule:nonzero;clip-rule:evenodd;stroke-linecap:round;stroke-linejoin:round;" version="1.1" viewBox="0 0 630 130" width="100%" xml:space="preserve" xmlns="http://www.w3.org/2000/svg" xmlns:vectornator="http://vectornator.io" xmlns:xlink="http://www.w3.org/1999/xlink">
<defs/>
<g id="Layer-2" vectornator:layerName="Layer 2">
<path d="M20 55L40 55L40 45L490 45L490 85L40 85L40 75L20 75L20 65L10 65L20 65L20 55Z" fill="#bfcad1" fill-rule="nonzero" opacity="0.996886" stroke="none"/>
<path d="M20 55L40 55L40 45L490 45L490 85L40 85L40 75L20 75L20 65L10 65L20 65L20 55Z" fill="#bfcad1" fill-rule="nonzero" opacity="0.996886" stroke="none"/>
<path d="M480 0L480 10L480 20L480 30L40 30L30 30L30 40L20 40L10 40L10 50L0 50L0 60L0 70L0 80L10 80L10 90L20 90L30 90L30 100L40 100L480 100L480 110L480 120L480 130L490 130L500 130L520 130L520 120L530 120L530 110L530 100L530 90L520 90L520 100L520 110L510 110L510 120L500 120L490 120L490 110L490 100L490 90L40 90L40 80L20 80L20 70L10 70L10 60L20 60L20 50L40 50L40 40L490 40L490 30L490 20L490 10L510 10L510 20L520 20L520 30L520 40L530 40L530 30L530 20L530 10L520 10L520 0L510 0L490 0L480 0ZM530 40L530 50L610 50L610 40L530 40ZM610 50L610 60L620 60L620 50L610 50ZM620 60L620 70L630 70L630 60L620 60ZM620 70L610 70L610 80L620 80L620 70ZM610 80L530 80L530 90L610 90L610 80Z" fill="#000000" fill-rule="nonzero" opacity="0.996886" stroke="none"/>
<path d="M480 0L480 10L480 20L480 30L40 30L30 30L30 40L20 40L10 40L10 50L0 50L0 60L0 70L0 80L10 80L10 90L20 90L30 90L30 100L40 100L480 100L480 110L480 120L480 130L490 130L500 130L520 130L520 120L530 120L530 110L530 100L530 90L520 90L520 100L520 110L510 110L510 120L500 120L490 120L490 110L490 100L490 90L40 90L40 80L20 80L20 70L10 70L10 60L20 60L20 50L40 50L40 40L490 40L490 30L490 20L490 10L510 10L510 20L520 20L520 30L520 40L530 40L530 30L530 20L530 10L520 10L520 0L510 0L490 0L480 0ZM530 40L530 50L610 50L610 40L530 40ZM610 50L610 60L620 60L620 50L610 50ZM620 60L620 70L630 70L630 60L620 60ZM620 70L610 70L610 80L620 80L620 70ZM610 80L530 80L530 90L610 90L610 80Z" fill="#000000" fill-rule="nonzero" opacity="0.996886" stroke="none"/>
<path d="M600 50L600 60L610 60L610 50L600 50Z" fill="#f2c977" fill-rule="nonzero" opacity="0.996886" stroke="none"/>
<path d="M600 50L600 60L610 60L610 50L600 50Z" fill="#f2c977" fill-rule="nonzero" opacity="0.996886" stroke="none"/>
<path d="M600 60L600 70L600 80L610 80L610 70L620 70L620 60L600 60Z" fill="#e6ad00" fill-rule="nonzero" opacity="0.996886" stroke="none"/>
<path d="M600 60L600 70L600 80L610 80L610 70L620 70L620 60L600 60Z" fill="#e6ad00" fill-rule="nonzero" opacity="0.996886" stroke="none"/>
<path d="M490 60L490 70L490 80L490 90L490 100L490 110L490 120L500 120L510 120L510 110L520 110L520 100L520 90L530 90L530 80L510 80L510 70L500 70L500 60L490 60Z" fill="#b46f00" fill-rule="nonzero" opacity="0.996886" stroke="none"/>
<path d="M490 60L490 70L490 80L490 90L490 100L490 110L490 120L500 120L510 120L510 110L520 110L520 100L520 90L530 90L530 80L510 80L510 70L500 70L500 60L490 60Z" fill="#b46f00" fill-rule="nonzero" opacity="0.996886" stroke="none"/>
<path d="M490 20L490 30L490 40L490 50L490 60L500 60L500 70L510 70L510 80L530 80L530 70L530 60L530 50L530 40L510 40L510 30L500 30L500 20L490 20Z" fill="#e6ad00" fill-rule="nonzero" opacity="0.996886" stroke="none"/>
<path d="M490 20L490 30L490 40L490 50L490 60L500 60L500 70L510 70L510 80L530 80L530 70L530 60L530 50L530 40L510 40L510 30L500 30L500 20L490 20Z" fill="#e6ad00" fill-rule="nonzero" opacity="0.996886" stroke="none"/>
<path d="M490 10L490 20L500 20L500 30L510 30L510 40L520 40L520 30L520 20L510 20L510 10L490 10Z" fill="#f2c977" fill-rule="nonzero" opacity="0.996886" stroke="none"/>
<path d="M490 10L490 20L500 20L500 30L510 30L510 40L520 40L520 30L520 20L510 20L510 10L490 10Z" fill="#f2c977" fill-rule="nonzero" opacity="0.996886" stroke="none"/>
<path d="M480 40L480 50L490 50L490 40L480 40Z" fill="#93b6c2" fill-rule="nonzero" opacity="0.996886" stroke="none"/>
<path d="M480 40L480 50L490 50L490 40L480 40Z" fill="#93b6c2" fill-rule="nonzero" opacity="0.996886" stroke="none"/>
<path d="M20 60L20 70L60 70L60 60L20 60Z" fill="#93b6c2" fill-rule="nonzero" opacity="0.996886" stroke="none"/>
<path d="M20 60L20 70L60 70L60 60L20 60Z" fill="#93b6c2" fill-rule="nonzero" opacity="0.996886" stroke="none"/>
<path d="M20 60L20 70L40 70L40 60L20 60Z" fill="#c4d5db" fill-rule="nonzero" opacity="0.996886" stroke="none"/>
<path d="M20 60L20 70L40 70L40 60L20 60Z" fill="#c4d5db" fill-rule="nonzero" opacity="0.996886" stroke="none"/>
<path d="M480 50L480 60L60 60L60 70L480 70L480 80L50 80L50 70L40 70L20 70L20 80L40 80L40 90L490 90L490 80L490 70L490 60L490 50L480 50Z" fill="#557185" fill-rule="nonzero" opacity="0.996886" stroke="none"/>
<path d="M480 50L480 60L60 60L60 70L480 70L480 80L50 80L50 70L40 70L20 70L20 80L40 80L40 90L490 90L490 80L490 70L490 60L490 50L480 50Z" fill="#557185" fill-rule="nonzero" opacity="0.996886" stroke="none"/>
<path d="M40 40L40 50L20 50L20 60L40 60L50 60L50 50L480 50L480 40L40 40ZM20 60L10 60L10 70L20 70L20 60Z" fill="#e5e5e5" fill-rule="nonzero" opacity="0.996886" stroke="none"/>
<path d="M40 40L40 50L20 50L20 60L40 60L50 60L50 50L480 50L480 40L40 40ZM20 60L10 60L10 70L20 70L20 60Z" fill="#e5e5e5" fill-rule="nonzero" opacity="0.996886" stroke="none"/>
<path d="M530 50L530 60L540 60L540 50L530 50ZM550 50L550 60L560 60L560 50L550 50ZM570 50L570 60L580 60L580 50L570 50ZM590 50L590 60L600 60L600 50L590 50Z" fill="#ab1315" fill-rule="nonzero" opacity="0.996886" stroke="none"/>
<path d="M530 50L530 60L540 60L540 50L530 50ZM550 50L550 60L560 60L560 50L550 50ZM570 50L570 60L580 60L580 50L570 50ZM590 50L590 60L600 60L600 50L590 50Z" fill="#ab1315" fill-rule="nonzero" opacity="0.996886" stroke="none"/>
<path d="M540 50L540 60L550 60L550 50L540 50ZM560 50L560 60L570 60L570 50L560 50ZM580 50L580 60L590 60L590 50L580 50Z" fill="#e0542a" fill-rule="nonzero" opacity="0.996886" stroke="none"/>
<path d="M540 50L540 60L550 60L550 50L540 50ZM560 50L560 60L570 60L570 50L560 50ZM580 50L580 60L590 60L590 50L580 50Z" fill="#e0542a" fill-rule="nonzero" opacity="0.996886" stroke="none"/>
<path d="M530 60L530 70L540 70L540 60L530 60ZM550 60L550 70L560 70L560 60L550 60ZM570 60L570 70L580 70L580 60L570 60ZM590 60L590 70L600 70L600 60L590 60Z" fill="#750700" fill-rule="nonzero" opacity="0.996886" stroke="none"/>
<path d="M530 60L530 70L540 70L540 60L530 60ZM550 60L550 70L560 70L560 60L550 60ZM570 60L570 70L580 70L580 60L570 60ZM590 60L590 70L600 70L600 60L590 60Z" fill="#750700" fill-rule="nonzero" opacity="0.996886" stroke="none"/>
<path d="M530 70L530 80L540 80L540 70L530 70ZM550 70L550 80L560 80L560 70L550 70ZM570 70L570 80L580 80L580 70L570 70ZM590 70L590 80L600 80L600 70L590 70Z" fill="#5b0606" fill-rule="nonzero" opacity="0.996886" stroke="none"/>
<path d="M530 70L530 80L540 80L540 70L530 70ZM550 70L550 80L560 80L560 70L550 70ZM570 70L570 80L580 80L580 70L570 70ZM590 70L590 80L600 80L600 70L590 70Z" fill="#5b0606" fill-rule="nonzero" opacity="0.996886" stroke="none"/>
<path d="M540 60L540 70L550 70L550 60L540 60ZM560 60L560 70L570 70L570 60L560 60ZM580 60L580 70L590 70L590 60L580 60Z" fill="#713616" fill-rule="nonzero" opacity="0.996886" stroke="none"/>
<path d="M540 60L540 70L550 70L550 60L540 60ZM560 60L560 70L570 70L570 60L560 60ZM580 60L580 70L590 70L590 60L580 60Z" fill="#713616" fill-rule="nonzero" opacity="0.996886" stroke="none"/>
<path d="M540 70L540 80L550 80L550 70L540 70ZM560 70L560 80L570 80L570 70L560 70ZM580 70L580 80L590 80L590 70L580 70Z" fill="#41050c" fill-rule="nonzero" opacity="0.996886" stroke="none"/>
<path d="M540 70L540 80L550 80L550 70L540 70ZM560 70L560 80L570 80L570 70L560 70ZM580 70L580 80L590 80L590 70L580 70Z" fill="#41050c" fill-rule="nonzero" opacity="0.996886" stroke="none"/>
<path d="M450 60L450 70L490 70L490 60L450 60Z" fill="#323943" fill-rule="nonzero" opacity="0.996886" stroke="none"/>
<path d="M450 60L450 70L490 70L490 60L450 60Z" fill="#323943" fill-rule="nonzero" opacity="0.996886" stroke="none"/>
</g>
</svg>
